<?xml version="1.0" standalone="no"?>
<!DOCTYPE svg PUBLIC "-//W3C//DTD SVG 20010904//EN"
 "http://www.w3.org/TR/2001/REC-SVG-20010904/DTD/svg10.dtd">
<svg version="1.0" xmlns="http://www.w3.org/2000/svg"
 width="100.000000pt" height="100.000000pt" viewBox="0 0 100.000000 100.000000"
 preserveAspectRatio="xMidYMid meet">
<metadata>
Created by potrace 1.14, written by Peter Selinger 2001-2017
</metadata>
<g transform="translate(0.000000,100.000000) scale(0.100000,-0.100000)"
fill="#000000" stroke="none">
<path d="M97 809 c-38 -11 -105 -65 -94 -76 4 -3 14 0 22 7 28 23 117 18 156
-8 l34 -24 0 -303 -1 -303 33 -4 c18 -2 37 -2 41 1 4 4 8 133 7 288 l0 282 65
0 c98 0 141 15 180 63 13 17 15 -14 15 -304 l0 -323 42 -3 42 -3 -2 129 -2
130 86 0 c131 1 194 37 219 127 31 110 -11 228 -93 266 -58 26 -281 28 -309 3
-10 -10 -40 -19 -66 -22 -43 -4 -58 1 -125 37 -63 35 -87 43 -144 46 -37 2
-85 -1 -106 -6z m733 -147 c34 -34 46 -94 30 -151 -16 -59 -45 -75 -143 -75
l-81 -1 1 108 c1 59 2 116 2 127 1 18 8 20 82 20 75 0 82 -2 109 -28z"/>
</g>
</svg>
